<svg id="Layer_1" data-name="Layer 1" xmlns="http://www.w3.org/2000/svg" xmlns:xlink="http://www.w3.org/1999/xlink" viewBox="0 0 140 140"><defs><style>.cls-1{fill:none;}.cls-2{fill:url(#linear-gradient);}.cls-3{fill:#ff991f;}.cls-4{fill:url(#linear-gradient-2);}.cls-5{fill:url(#linear-gradient-3);}.cls-6{fill:url(#linear-gradient-4);}.cls-7{fill:url(#linear-gradient-5);}.cls-8{fill:url(#linear-gradient-6);}.cls-9{fill:url(#linear-gradient-7);}.cls-10{fill:url(#linear-gradient-8);}.cls-11{fill:url(#linear-gradient-9);}</style><linearGradient id="linear-gradient" x1="-11881.02" y1="125.93" x2="-11880.05" y2="126.52" gradientTransform="translate(-10732.03 4835.85) rotate(156.81)" gradientUnits="userSpaceOnUse"><stop offset="0" stop-color="#0052cc"/><stop offset="0.43" stop-color="#004fc3"/><stop offset="1" stop-color="#0049b0"/></linearGradient><linearGradient id="linear-gradient-2" x1="-2823.89" y1="5661.58" x2="-2791.4" y2="5681.41" xlink:href="#linear-gradient"/><linearGradient id="linear-gradient-3" x1="13.26" y1="95.7" x2="64.59" y2="99.37" gradientUnits="userSpaceOnUse"><stop offset="0" stop-color="#0052cc"/><stop offset="0.14" stop-color="#005be3"/><stop offset="0.31" stop-color="#0062f8"/><stop offset="0.42" stop-color="#0065ff"/><stop offset="0.72" stop-color="#1475ff"/><stop offset="0.96" stop-color="#2684ff"/></linearGradient><linearGradient id="linear-gradient-4" x1="13.93" y1="86.28" x2="65.26" y2="89.94" xlink:href="#linear-gradient-3"/><linearGradient id="linear-gradient-5" x1="-0.37" y1="77.84" x2="15" y2="89.61" gradientUnits="userSpaceOnUse"><stop offset="0" stop-color="#0052cc"/><stop offset="0.48" stop-color="#0065ff"/><stop offset="0.75" stop-color="#1475ff"/><stop offset="0.96" stop-color="#2684ff"/></linearGradient><linearGradient id="linear-gradient-6" x1="6.64" y1="68.67" x2="22.02" y2="80.44" xlink:href="#linear-gradient-5"/><linearGradient id="linear-gradient-7" x1="28.16" y1="63.62" x2="87.43" y2="13.47" gradientUnits="userSpaceOnUse"><stop offset="0.02" stop-color="#2684ff"/><stop offset="0.11" stop-color="#2281ff"/><stop offset="0.21" stop-color="#1677ff"/><stop offset="0.3" stop-color="#0166ff"/><stop offset="0.31" stop-color="#0065ff"/><stop offset="0.32" stop-color="#0064fd"/><stop offset="0.53" stop-color="#005ae2"/><stop offset="0.71" stop-color="#0054d2"/><stop offset="0.85" stop-color="#0052cc"/></linearGradient><linearGradient id="linear-gradient-8" x1="13.4" y1="45.47" x2="80.8" y2="97.04" gradientUnits="userSpaceOnUse"><stop offset="0.04" stop-color="#2684ff"/><stop offset="0.05" stop-color="#2382ff"/><stop offset="0.13" stop-color="#1072ff"/><stop offset="0.21" stop-color="#0468ff"/><stop offset="0.29" stop-color="#0065ff"/><stop offset="1" stop-color="#0052cc"/></linearGradient><linearGradient id="linear-gradient-9" x1="80.59" y1="66.36" x2="142.73" y2="65.39" xlink:href="#linear-gradient-5"/></defs><title>Artboard 39</title><path class="cls-1" d="M97.77,35.35A15.4,15.4,0,0,0,90.36,42l-.5,1-.5,1.21h0L83.52,58.4l15.75,6.11.67.19A15.38,15.38,0,0,0,110,64a15.56,15.56,0,0,0,9.31-16.34l-.54-2.46a15.58,15.58,0,0,0-21-9.8Z"/><path class="cls-1" d="M56.58,70,40.75,63.83l-.67-.19A15.39,15.39,0,0,0,30,64.39a15.53,15.53,0,0,0-8.18,20.43h0A15.58,15.58,0,0,0,42.25,93a15.4,15.4,0,0,0,7.42-6.64l.5-1"/><polygon class="cls-2" points="139.48 43.62 138.79 40.44 139.47 43.62 139.48 43.62"/><polygon class="cls-3" points="70.4 36.36 70.4 36.37 70.4 36.36 70.4 36.36"/><path class="cls-4" d="M139.81,45.78a43.49,43.49,0,0,0-1.17-6,36.7,36.7,0,0,0-1.55-4.37,36.14,36.14,0,0,0-47.4-19,35.76,35.76,0,0,0-17.4,15.76l-.95,1.87-.94,2.27h0L82.86,33l6.46,11.15h0l.5-1.21.5-1a15.4,15.4,0,0,1,7.42-6.64,15.58,15.58,0,0,1,20.43,8.17c.23.53.2.52.6,1.63a11.83,11.83,0,0,1,.33,1.2c2,.37,6.11,7.66,10.35,7.58C134.65,53.84,139.87,46.53,139.81,45.78Z"/><path class="cls-5" d="M2.94,92.9a36.1,36.1,0,0,0,47.4,19,35.76,35.76,0,0,0,17.4-15.76l.95-1.87.58-1.39h0L62.79,81.69,50.32,85h0l-.16.33-.5,1A15.4,15.4,0,0,1,42.25,93a15.58,15.58,0,0,1-20.43-8.18h0"/><path class="cls-6" d="M21.82,84.82a15,15,0,0,1-1.24-5.47L9.8,86.53,0,78.15A36,36,0,0,0,2.93,92.9"/><path class="cls-7" d="M0,78.13l0,0s0,0,0,0Z"/><polygon class="cls-8" points="20.59 79.33 20.57 79.33 20.57 79.34 20.59 79.33"/><path class="cls-9" d="M0,78.15,9.8,86.53l10.78-7.18h0L0,78.13S0,78.15,0,78.15Z"/><path class="cls-10" d="M64.39,51,47.94,44.59l-.61-.22c-.65-.21-1.31-.41-2-.59A36.11,36.11,0,0,0,0,78.13s0,0,0,0L9.8,86.53l10.78-7.18h0A15.55,15.55,0,0,1,30,64.39a15.39,15.39,0,0,1,10.09-.75l.67.19L56.58,70,83.52,80.43l8.21-18.85Z"/><path class="cls-11" d="M139.81,45.78s-10.23,7.82-10.23,7.82L119.07,46l.26,1.65A15.56,15.56,0,0,1,110,64a15.38,15.38,0,0,1-10.09.75l-.67-.19L83.52,58.4l-7.8,19,16.36,6.35.61.22c.65.21,1.31.41,2,.59a36.11,36.11,0,0,0,45.18-38.29Z"/><polygon class="cls-3" points="87.97 48.07 81.46 36.91 68.98 40.27 68.98 40.27 68.98 40.27 68.98 40.27 64.59 50.97 52.21 81.06 52.03 81.52 64.49 78.16 71 89.33 75.89 77.4 75.91 77.41 83.55 58.77 83.55 58.77 87.95 48.08 87.92 48.05 87.97 48.07"/></svg>